#!OML:ASF E:/inclinewalkrobotboard/Project1/Captureday1/Session1/subject1.ASF
:FULLY-SPECIFIED
:DEGREES
176
root 0 0 0 -6.5256335877925 -26.36439870507039 5.266931335138019
lowerback 10.78878876679707 -0.6681289139195783 -5.703340096340059
upperback 5.320385806508183 -1.5095538986470547 -1.182993078827357
thorax -0.3224504352697479 -0.7819203403195063 2.095540160452123
lowerneck 4.018011539914628 -3.1061310522502303 -10.05960955204749
upperneck 11.655526034635358 -4.9838234610964705 12.262390050867245
head 3.369219182606763 -2.5783000284326714 5.416390094008387
rclavicle -4.9750398024725115E-15 1.4395943043085005E-15
rhumerus 39.486911633516186 -24.502358091126194 -46.02118875231768
rradius 51.34120340876006
rwrist 20.456076202714847
rhand -30.54455538980146 2.724708769262974
rfingers 7.125020000000015
rthumb -3.793370469994951 -27.307882400883315
lclavicle -6.925262993829728E-16 2.2428356040574816E-16
lhumerus 21.818905064653368 -30.309471785702307 66.94517934035447
lradius 124.73944242799772
lwrist 55.12242386572599
lhand -28.18861615573983 43.004327505858
lfingers 7.149219167015387
lthumb -1.398705251623916 52.8924873797576
rfemur -38.60708866884464 6.012956094718048 4.412496327001039
rtibia 56.90976524746645
rfoot -5.05278465773096 -10.072884212364501
rtoes -6.857224067378839
lfemur -5.1024560181179375 -5.250985021821743 -14.794647360316329
ltibia 25.921113674138404
lfoot -16.781683042837464 13.638966840885018
ltoes -2.104634686753101
177
root 0 0 0 -6.350205412447565 -25.9962949120763 5.207209101691916
lowerback 10.9093694735489 -0.6396068290009889 -5.710825121338865
upperback 5.367435715330946 -1.4774162404704245 -1.193186017091488
thorax -0.34115480936680864 -0.7659630270497193 2.0837957326024568
lowerneck 4.075919765341197 -3.183289002005099 -10.087785437702824
upperneck 11.634591416179909 -5.086148318523549 12.344626738582475
head 3.3637157802194704 -2.6267759287599874 5.442919407505412
rclavicle -4.952706901750671E-15 1.4334480151829475E-15
rhumerus 39.004755748983925 -24.09187191659139 -46.325815670478846
rradius 51.308605080310265
rwrist 20.415585499831792
rhand -30.415306650785507 2.7291371367874184
rfingers 7.125020000000015
rthumb -3.6706276881653226 -27.295141470299217
lclavicle -6.898812361144298E-16 2.2737550714582076E-16
lhumerus 21.56207196419184 -30.473893100855484 67.14577545388846
lradius 124.7091344789185
lwrist 54.98708266413038
lhand -28.077531532677845 42.982719257719026
lfingers 7.149023956735824
lthumb -1.2919001673147577 52.91497594848771
rfemur -38.48280985883323 6.156391951086988 4.423225634518248
rtibia 56.69082881779105
rfoot -5.00606729426845 -9.958896831428762
rtoes -6.851352781178774
lfemur -5.194242632085084 -5.266727747085801 -14.760888725397873
ltibia 25.916144147424667
lfoot -16.675993420379847 13.644459559587315
ltoes -2.031343648024345
178
root 0 0 0 -6.246096795382858 -25.797402194156916 5.188747388367775
lowerback 10.992091827998747 -0.6259072116597002 -5.721330637570149
upperback 5.403022368675166 -1.463602930424656 -1.1985461689832988
thorax -0.3500189631535111 -0.7591307211867286 2.0812493090292943
lowerneck 4.127216269142945 -3.2248029124278825 -10.106201084242304
upperneck 11.62781886658924 -5.141477628924748 12.394732597683884
head 3.3585324600911983 -2.653422600796268 5.459932672290185
rclavicle -4.927862523907666E-15 1.4193377655632547E-15
rhumerus 38.72114397457854 -23.88929928788082 -46.487882947884174
rradius 51.18592043633623
rwrist 20.459219870005903
rhand -30.304546989511884 2.7738195280740525
rfingers 7.125020000000015
rthumb -3.5648813117117477 -27.246566893844975
lclavicle -6.902491905320367E-16 2.266803584232777E-16
lhumerus 21.487403650286115 -30.579159567631798 67.22926205798876
lradius 124.79879858190024
lwrist 55.00638578831766
lhand -28.045819385860973 42.99689759655178
lfingers 7.149041301582318
lthumb -1.260822290777405 52.919907451385924
rfemur -38.58585025988952 6.140691853893763 4.373869173480012
rtibia 56.793541940757635
rfoot -4.895754873489286 -9.890745975357552
rtoes -6.835594539729212
lfemur -5.231837845870746 -5.280985418061858 -14.741814870656695
ltibia 25.883337283811496
lfoot -16.63391613369834 13.671062049419767
ltoes -1.986822803264055
179
root 0 0 0 -6.149882375311083 -25.653242067175256 5.172821062330193
lowerback 11.073712508486187 -0.6100555786410669 -5.728524315342284
upperback 5.438641749885798 -1.4467238064905128 -1.205894714658901
thorax -0.3583283578129719 -0.7508415187100341 2.074517707323937
lowerneck 4.179384179587425 -3.2636327002064993 -10.123185711500055
upperneck 11.595587526102548 -5.1930392977137965 12.445717465795397
head 3.3452851766509877 -2.6781777093425703 5.47743446882643
rclavicle -4.905104091849837E-15 1.4016873866559681E-15
rhumerus 38.33597860956131 -23.688461572359 -46.67952462050779
rradius 50.84199264127989
rwrist 20.636350991886253
rhand -30.09824207486461 2.9061489518349184
rfingers 7.125020000000016
rthumb -3.366290522813725 -27.11094303170993
lclavicle -6.872986309163073E-16 2.267854133872529E-16
lhumerus 21.426455931932228 -30.670705480775027 67.2992743521209
lradius 124.877788637534
lwrist 55.02785581303221
lhand -28.020291596669303 43.00996246332181
lfingers 7.149051707643299
lthumb -1.2358230441168079 52.921626986494935
rfemur -38.66218250853346 6.1356132110337605 4.333482203819553
rtibia 56.863150951192246
rfoot -4.81302977064552 -9.835419865354526
rtoes -6.828059128973029
lfemur -5.267667959368049 -5.277405346956968 -14.729829126191076
ltibia 25.88247485705341
lfoot -16.612328027602846 13.694874235032058
ltoes -1.952293142429291
